<svg xmlns="http://www.w3.org/2000/svg" viewBox="0 0 707.06 677.29"><defs><style>.cls-1{fill:#50af1e;}.cls-2{fill:#191816;}.cls-3{fill:#f05b59;}.cls-4{fill:#e99361;}.cls-5{fill:#fdf9f1;}.cls-6{fill:#b35627;}</style></defs><g id="Capa_2" data-name="Capa 2"><g id="Capa_1-2" data-name="Capa 1"><path class="cls-1" d="M577.13,0a114.18,114.18,0,0,1,25.21,2.93c19.81,4.46,38.09,12.27,53.92,25.24,21.65,17.72,37.54,39.4,45.4,66.53a127.5,127.5,0,0,1,5.23,35.71c-.06,137.29-.54,274.58.17,411.86.32,61.42-41.28,113.16-94.77,129.11A133.37,133.37,0,0,1,572,677.09c-10.82-.16-21.65-.14-32.48-.2l-372.87,0c-18.62.11-37.37,1.51-55.78-2-22.63-4.32-43.29-13.5-61.24-28.2-21.13-17.3-36.34-38.78-44-65.05A128.66,128.66,0,0,1,0,545.28Q.26,338.61.23,131.92c0-34.84,11.88-65,35.92-90A134,134,0,0,1,60.79,21.6a144.62,144.62,0,0,1,41.58-18,72.82,72.82,0,0,1,15-1.87Z"/><path class="cls-2" d="M405.27,528.65c11.81,3.28,23.13,8.71,33.77,14.46,23,12.42,41,30.55,57.74,50.14,14.07,16.46,26.66,34.09,40,51.16,2.94,3.76,2,5.83-1.68,7.76-2.8,1.45-5.56,3-8.34,4.48l-40.57,20.24-86.59,0c-1.58-3.58-4.34-6.26-6.91-9.07C389,663.92,389,664,394,662.7c11.5-2.87,19-13.77,17.28-25-1.91-12.28-11.84-19.83-24.55-18.95-3.88.27-7.26,2-10.86,2.94-1.14-1.92-.5-3.78-.54-5.57-.4-16-15.08-26.94-29.41-21.83-9.14,3.25-14.42,11.33-14.38,22.69,0,4-.9,5.32-4.71,3.29a11.5,11.5,0,0,0-2.38-.7C311.53,616,299.24,623.08,296,636c-3.1,12.27,4.85,24.41,17.93,26.88,3.87.73,3.17,2,1.22,4-3,3.1-6.22,6-8,10l-85.59-.06c-.37-.8-1.1-.82-1.83-.84-9.23-4.67-18.39-9.47-27.7-14-4.24-2-12.86-5.92-12.86-5.92-2.7-1.61-5.43-3.18-8.08-4.86s-3.23-3.42-1.1-6.13C185.49,625.39,200.22,605,216.71,586c23-26.52,51.44-47.42,85.42-57.42,0,0-49.38.33-65.84.3-12.75,0-25.48-1.69-38.19-3-25.07-2.52-50-5.77-74.58-11.7-4.15-1-6.07-3.31-7-7.32-3.4-14.32-4-28.94-5-43.53a69.5,69.5,0,0,0-.5-7.84,129.57,129.57,0,0,0-6.52,24.77c-1.29,7.19-2.69,14.37-3.81,21.59-.5,3.22-1.59,4.36-4.93,3.18C84.3,501,73.14,496.24,62,491.48a6.86,6.86,0,0,1-4.48-6.61c-.24-16.12,0-32.22,2-48.25,4.37-35.4,14.9-69.4,23.73-103.78,5.91-23,10.61-46.24,14.54-69.67C104.23,224.7,113.3,187,133,152.72c30.19-52.44,75.39-85,133.39-100.5a283,283,0,0,1,66.41-9.31c10.09-.25,20.25-1.3,30.31-.64,13.92.92,27.85,1.95,41.76,3.56,18.27,2.11,35.68,7,53.07,12.34a174,174,0,0,1,39.44,17.66c34.12,20.88,61.22,48.74,80.09,84.34C592.24,188,601,217.74,606.1,248.5c7.5,45.17,19,89.32,30.83,133.46,6,22.33,10.39,45,11.63,68.17.52,9.76,1,19.52,1.59,29.27.49,7.83-.86,10.37-8.21,13.37-10,4.08-20.07,7.84-30,12-4.32,1.83-5.77-.16-6.28-3.79-1.43-10.23-3-20.44-4.91-30.61-1-5.07-2.37-9.95-3.74-16.13L589.54,507c-1,4.1-2.94,6.13-7,7.16-17.92,4.52-36.2,7-54.39,10,0,0-20.32,2.22-27.12,2.61C477.09,528.14,405.27,528.65,405.27,528.65ZM245.94,167.93c-.5,1.66-1.11,3.3-1.49,5-3.32,14.74-6.78,29.45-9.78,44.25-.91,4.52-2.8,6-7.32,5.88-15-.25-30,0-45-.19-3.69-.06-5.06,1.06-6,4.59-7.55,30.09-14.7,60.24-16.19,91.38-1.37,28.59-2.39,57.23,3.43,85.5,6.09,29.53,19.8,54.75,43.59,74,24.93,20.15,53.69,31.7,84.86,37.65,10.86,2.08,10.95,1.63,11.26,12.75.43,15.7,9.92,28.68,25.07,32,17.71,3.91,35.59,4,53.12-1.75,11.7-3.87,19.26-11.65,21.45-23.91a73.48,73.48,0,0,0,.63-13.93c0-2.75.81-3.82,3.56-4.14a184.59,184.59,0,0,0,43.28-11c25-9.45,47.73-22.6,65.15-43.49a123.7,123.7,0,0,0,22.25-40.71A182.12,182.12,0,0,0,546.51,378a396.19,396.19,0,0,0-1-69.65c-2.57-26.67-8.09-52.76-14.61-78.71-1.45-5.76-3.77-7.77-9.26-6.74-.33.06-.68,0-1,0-4.37.71-6.57-1.27-8-5.41-3.2-9.41-6.75-18.7-10.38-28-.81-2.08-1.15-4.62-3.35-6.3.29,11.65,1.39,22.91,1,34.24-.15,4-1.54,5.53-5.66,5.51q-37.49-.19-75,0c-3.72,0-5.41-1.24-5.89-4.94-1.56-12-3.18-24.05-5.09-36-.77-4.86-.74-9.95-3.11-14.57-2.51,16.45-4.74,32.86-6.56,49.31-.54,4.92-2.55,6.26-7.33,6.24-44.82-.16-89.64-.09-134.46-.09-11.35,0-11.21,0-11.43-11.51C245.18,197,246.06,182.53,245.94,167.93Z"/><path class="cls-3" d="M307.1,676.91c1.8-4,5-7,8-10,1.95-2,2.65-3.27-1.22-4-13.08-2.48-21-14.61-17.93-26.88,3.27-12.91,15.56-20,28.5-16.44a11.5,11.5,0,0,1,2.38.7c3.81,2,4.73.67,4.71-3.29,0-11.37,5.24-19.44,14.38-22.69,14.33-5.11,29,5.81,29.41,21.83,0,1.79-.6,3.65.54,5.57,3.6-.9,7-2.67,10.86-2.94,12.71-.88,22.64,6.67,24.55,18.94,1.74,11.26-5.78,22.15-17.28,25-5,1.26-5,1.21-1.37,5.16,2.57,2.81,5.33,5.49,6.91,9.07Z"/><path class="cls-4" d="M221.51,676.86l-54.82.06,12.43-20.8Z"/><path class="cls-4" d="M486.15,676.89q20.28-10.11,40.57-20.26a104.44,104.44,0,0,1,12.84,20.26Z"/><path class="cls-4" d="M245.94,167.92c.12,14.6-.76,29-.49,43.51.22,11.52.08,11.52,11.43,11.52,44.82,0,89.64-.07,134.46.09,4.78,0,6.79-1.32,7.33-6.24,1.82-16.45,4.05-32.86,6.56-49.31,2.37,4.62,2.34,9.71,3.11,14.57,1.91,12,3.53,24,5.09,36,.48,3.7,2.17,5,5.89,4.94q37.49-.2,75,0c4.12,0,5.51-1.48,5.66-5.51.42-11.33-.68-22.59-1-34.24,2.2,1.68,2.54,4.21,3.35,6.29,3.63,9.26,7.18,18.56,10.38,28,1.41,4.14,3.61,6.11,8,5.41.32-.05.67.05,1,0,5.49-1,7.81,1,9.26,6.74,6.52,26,12,52,14.61,78.7a396.3,396.3,0,0,1,1,69.66,182.12,182.12,0,0,1-8.63,43.73,123.7,123.7,0,0,1-22.25,40.71c-17.42,20.89-40.1,34-65.15,43.49a184.57,184.57,0,0,1-43.28,11c-2.75.33-3.6,1.4-3.56,4.15a73.52,73.52,0,0,1-.63,13.93c-2.19,12.26-9.75,20-21.45,23.9-17.53,5.8-35.41,5.67-53.12,1.76-15.15-3.35-24.64-16.33-25.07-32-.31-11.12-.4-10.67-11.26-12.75-31.17-6-59.93-17.5-84.86-37.65-23.79-19.24-37.5-44.46-43.59-74-5.82-28.27-4.8-56.91-3.43-85.5,1.49-31.14,8.64-61.29,16.19-91.38.89-3.53,2.26-4.65,6-4.59,15,.24,30-.06,45,.19,4.52.07,6.41-1.37,7.32-5.88,3-14.8,6.46-29.52,9.78-44.25C244.83,171.22,245.44,169.58,245.94,167.92Z"/><path class="cls-2" d="M372.59,654.55c0,10.33-9.75,20.39-19.89,20.5-8.85.09-18.59-10.67-18.64-20.59C334,644,343,634.94,353.36,635A19.65,19.65,0,0,1,372.59,654.55Z"/><path class="cls-2" d="M352.73,478.05c-24.51-2-46-9.79-60.2-31.56a36.86,36.86,0,0,1-6.27-24.11c1.44-15.44,12.82-23.23,27.67-18.84,8.53,2.52,16.67,6.22,25.6,7.61,17.64,2.74,34.35-.4,50.73-6.74,4.18-1.62,8.57-2.83,13.15-2.18,9,1.27,15.82,8.34,17.09,17.65,1.75,12.74-2.55,23.59-10.64,33.12-12,14.09-27.78,21.08-45.65,23.92C360.47,477.51,356.68,478.49,352.73,478.05Z"/><circle class="cls-5" cx="275" cy="332.69" r="44.12"/><circle class="cls-5" cx="433.56" cy="333.13" r="44.12"/><circle cx="418.76" cy="338.47" r="28.75"/><circle cx="289.76" cy="338.47" r="28.75"/><path class="cls-2" d="M429.72,244.65c15.82.49,28.41,5.88,38.58,16.72a28.08,28.08,0,0,1,2,2.26c3.84,5.09,4.28,9.48,1.29,12.61-3.15,3.31-7.45,2.82-12.84-1.38C447.38,266,435,261.07,420.27,264c-1.77.35-3.66,0-5.48.14-4.11.39-7-1.57-8.08-5.2-1.2-4,0-7.52,3.89-9.83C416.83,245.32,423.72,244.72,429.72,244.65Z"/><path class="cls-2" d="M278.37,244.83a37.6,37.6,0,0,1,15.1,2.74c5.56,2.12,8,5.72,7,10.52-.79,4.12-4.1,6.27-10,6.07-7.57-.26-15.08-1.88-22.7.3A53.63,53.63,0,0,0,247,275.78c-3.37,2.93-7.2,4-10.83,1s-3.36-7-.93-10.77c6.93-10.8,17.23-16.67,29.31-19.9A49.62,49.62,0,0,1,278.37,244.83Z"/><path class="cls-6" d="M354.22,389a36.6,36.6,0,0,1-14.59-2.45c-9.77-3.9-11.41-13.43-3.65-20.59,8.14-7.52,27.06-7.45,35.13.13,7.23,6.79,5.48,16.92-3.77,20.33C363,388,358.51,389.38,354.22,389Z"/><path class="cls-3" d="M349.76,473A56.12,56.12,0,0,1,322.7,466c-3.48-2-4.15-4.11-2-7.53,5.18-8.34,12.94-12.69,22.25-14.55,13.36-2.67,26.21-1.76,37.27,7.22,10.47,8.5,9.66,13.18-2.92,17.69C369.26,471.66,360.91,473,349.76,473Z"/></g></g></svg>